<?xml version="1.0" standalone="no"?>
<!DOCTYPE svg PUBLIC "-//W3C//DTD SVG 20010904//EN"
 "http://www.w3.org/TR/2001/REC-SVG-20010904/DTD/svg10.dtd">
<svg version="1.0" xmlns="http://www.w3.org/2000/svg"
 width="500.000000pt" height="500.000000pt" viewBox="0 0 500.000000 500.000000"
 preserveAspectRatio="xMidYMid meet">

<g transform="translate(0.000000,500.000000) scale(0.100000,-0.100000)"
fill="#000000" stroke="none">
<path d="M2342 3970 c-136 -19 -290 -85 -364 -156 -37 -35 -49 -52 -27 -38 7
4 10 1 7 -7 -3 -8 -1 -25 5 -39 19 -51 35 -137 36 -205 1 -38 4 -71 7 -74 3
-3 14 0 24 7 17 10 20 9 26 -15 l7 -27 10 25 c6 15 11 19 14 11 6 -16 34 32
29 51 -1 7 -1 9 1 4 8 -13 23 3 23 25 0 32 31 77 52 75 15 -1 18 -7 13 -25 -4
-15 -2 -21 4 -17 10 5 7 -35 -5 -73 -2 -7 1 -10 6 -7 6 3 10 18 11 33 0 15 3
22 5 17 2 -6 0 -39 -4 -73 -5 -34 -5 -62 0 -62 4 0 8 11 8 25 l0 25 420 0
c367 0 420 -2 420 -15 0 -9 9 -15 21 -15 18 0 21 4 16 29 -3 15 -2 32 4 38 12
12 1 45 -13 37 -5 -3 -9 2 -8 12 4 31 1 38 -25 68 -14 16 -25 35 -25 43 0 7
-7 16 -15 19 -8 4 -13 10 -10 14 2 4 -35 45 -83 92 -83 80 -160 128 -267 166
-91 32 -226 45 -323 32z"/>
<path d="M1874 3714 c-21 -26 -39 -53 -39 -61 0 -8 -7 -20 -16 -26 -25 -19
-36 -50 -28 -82 3 -16 8 -25 9 -20 1 6 5 -1 10 -15 l7 -25 11 25 c11 22 11 21
6 -12 -4 -24 -2 -38 4 -38 6 0 13 -15 15 -32 4 -32 4 -32 5 5 1 21 6 36 11 33
12 -8 21 18 21 57 0 18 5 48 10 67 10 33 23 170 17 170 -2 0 -21 -21 -43 -46z
m3 -221 c-3 -10 -5 -2 -5 17 0 19 2 27 5 18 2 -10 2 -26 0 -35z"/>
<path d="M1982 3515 c0 -16 2 -22 5 -12 2 9 2 23 0 30 -3 6 -5 -1 -5 -18z"/>
<path d="M1987 3412 c-7 -35 -3 -38 11 -7 6 13 7 27 3 30 -5 2 -11 -8 -14 -23z"/>
<path d="M2192 3420 c0 -14 2 -19 5 -12 2 6 2 18 0 25 -3 6 -5 1 -5 -13z"/>
<path d="M2020 2301 c0 -11 7 -26 15 -34 8 -8 12 -17 9 -20 -7 -7 37 -131 48
-135 5 -2 6 -8 3 -13 -11 -17 15 -49 39 -49 21 0 28 10 55 91 17 51 28 96 24
102 -3 6 -1 7 4 4 6 -4 13 3 16 16 2 12 8 30 12 40 5 13 2 17 -13 17 -26 0
-45 -24 -46 -59 -1 -16 -4 -27 -7 -25 -4 2 -15 -25 -24 -61 -10 -36 -21 -65
-24 -65 -3 0 -20 46 -37 103 -25 86 -34 103 -52 105 -16 3 -22 -2 -22 -17z"/>
<path d="M2352 2309 c-37 -14 -63 -68 -59 -119 6 -53 9 -70 22 -91 30 -49 119
-63 172 -26 75 51 71 192 -7 232 -30 16 -91 18 -128 4z m112 -44 c8 -9 18 -30
21 -48 6 -40 2 -106 -7 -101 -3 2 -8 0 -10 -5 -1 -6 -22 -14 -45 -19 -30 -7
-41 -7 -36 1 4 6 0 8 -10 4 -9 -3 -16 -3 -15 1 1 4 -4 20 -10 35 -20 48 -9
120 21 139 21 13 75 9 91 -7z"/>
<path d="M2615 2308 c-3 -8 -4 -68 -3 -134 3 -111 4 -119 23 -119 19 0 20 7
20 130 0 116 -2 130 -18 133 -9 2 -19 -3 -22 -10z"/>
<path d="M2750 2185 l0 -136 59 5 c107 8 151 48 151 139 0 41 -5 59 -21 76
-31 33 -80 51 -139 51 l-50 0 0 -135z m126 87 c30 -21 40 -52 34 -102 -8 -60
-13 -66 -67 -75 l-43 -7 0 96 0 96 33 0 c17 0 37 -4 43 -8z"/>
<path d="M1565 1975 c-30 -29 -33 -75 -7 -98 32 -29 60 -21 94 28 33 47 46 53
66 33 19 -19 14 -37 -15 -64 -31 -29 -24 -43 12 -20 44 29 45 99 2 115 -34 13
-57 1 -77 -39 -11 -21 -26 -40 -34 -43 -16 -6 -46 17 -46 34 0 19 21 49 34 49
8 0 16 7 20 15 9 24 -22 18 -49 -10z"/>
<path d="M1987 1890 c14 -36 26 -69 27 -75 1 -5 11 -36 21 -67 15 -47 23 -58
41 -58 30 0 36 10 78 132 20 58 39 113 42 122 5 12 0 16 -20 16 -23 0 -27 -7
-56 -100 -17 -55 -28 -105 -24 -111 4 -7 1 -10 -7 -7 -8 2 -15 17 -17 31 -2
15 -6 25 -10 23 -4 -2 -8 8 -9 23 -1 15 -11 53 -23 84 -18 48 -25 56 -44 55
l-24 -2 25 -66z"/>
<path d="M2252 1828 c3 -129 4 -133 26 -136 22 -3 22 -3 22 132 l0 136 -25 0
-26 0 3 -132z"/>
<path d="M2382 1828 l3 -133 55 -1 c68 -1 107 11 127 42 19 29 11 69 -17 84
-19 10 -19 11 0 30 21 21 27 70 9 70 -5 0 -8 4 -5 9 9 14 -36 27 -107 30 l-68
3 3 -134z m135 78 c3 -3 3 -17 -1 -31 -5 -21 -12 -25 -45 -25 -35 0 -39 3 -43
30 -3 16 0 34 5 39 8 8 73 -1 84 -13z m-1 -107 c19 -15 4 -59 -21 -65 -40 -10
-60 -1 -63 29 -5 45 2 54 40 49 18 -2 38 -8 44 -13z"/>
<path d="M2650 1825 l0 -135 75 0 c68 0 75 2 75 20 0 17 -7 20 -48 20 -27 0
-51 2 -53 4 -3 3 -3 22 -1 43 l4 38 44 -3 c39 -4 44 -2 44 17 0 18 -6 21 -45
21 -45 0 -45 0 -45 35 l0 35 50 0 c43 0 50 3 50 20 0 18 -7 20 -75 20 l-75 0
0 -135z"/>
<path d="M2882 1940 c-45 -42 -18 -109 57 -140 32 -13 45 -42 28 -59 -14 -14
-57 -14 -91 -1 -22 8 -26 7 -26 -10 0 -28 36 -43 89 -37 84 9 110 83 46 131
-19 15 -40 24 -47 20 -6 -4 -8 -3 -5 3 4 6 -3 13 -14 16 -15 4 -20 12 -17 29
3 21 8 23 56 22 42 -2 52 1 48 12 -3 8 0 14 7 15 28 1 -32 18 -69 18 -27 1
-47 -5 -62 -19z"/>
<path d="M1705 1800 c-3 -5 -30 -10 -58 -10 -63 0 -99 -17 -111 -51 -24 -70
25 -111 126 -101 40 3 58 1 58 -7 0 -6 5 -11 10 -11 12 0 13 57 1 64 -5 3 -11
-1 -15 -9 -4 -11 -23 -15 -76 -15 -65 0 -71 2 -82 25 -16 36 2 70 42 79 49 9
110 7 110 -4 0 -5 5 -10 10 -10 6 0 10 14 10 30 0 29 -13 40 -25 20z"/>
<path d="M3298 1753 c7 -3 16 -2 19 1 4 3 -2 6 -13 5 -11 0 -14 -3 -6 -6z"/>
<path d="M3290 1681 c0 -6 7 -14 15 -17 16 -7 20 -51 6 -73 -7 -11 -20 -11
-81 0 -40 7 -74 18 -77 26 -9 22 -21 14 -25 -17 -4 -26 -2 -29 14 -24 10 3 44
0 76 -6 83 -17 93 -20 86 -32 -4 -6 -1 -9 7 -6 12 4 46 134 37 143 -11 11 -58
16 -58 6z"/>
<path d="M1725 1596 c-13 -18 -131 -57 -150 -49 -19 7 -19 -8 2 -74 15 -48 20
-54 42 -51 32 4 39 25 10 30 -14 2 -26 13 -32 31 -11 33 -10 35 31 43 27 6 32
3 38 -20 9 -39 27 -32 20 8 -6 30 -4 34 19 40 33 8 41 3 50 -31 4 -19 2 -29
-10 -35 -22 -13 -8 -30 18 -22 12 3 24 8 26 10 5 5 -40 134 -47 134 -4 0 -12
-6 -17 -14z"/>
<path d="M2584 1453 c17 -19 25 -36 21 -45 -7 -10 -5 -11 6 0 11 10 8 18 -21
45 l-35 32 29 -32z"/>
<path d="M2738 1473 c7 -3 16 -2 19 1 4 3 -2 6 -13 5 -11 0 -14 -3 -6 -6z"/>
<path d="M3076 1463 c-5 -12 12 -36 57 -82 35 -36 67 -75 71 -86 7 -19 8 -19
21 5 18 32 18 43 1 37 -8 -3 -21 2 -30 12 -16 17 -16 21 0 55 19 39 46 47 63
19 10 -17 12 -17 26 1 26 34 18 41 -53 42 -37 0 -86 4 -108 7 -34 6 -43 4 -48
-10z m111 -26 c2 -3 -2 -17 -9 -31 l-14 -26 -34 36 -35 37 43 -6 c24 -3 46 -8
49 -10z"/>
<path d="M1789 1455 c-1 -5 -1 -13 0 -18 2 -11 -111 -80 -134 -83 -21 -1 -22
-19 -3 -41 13 -17 29 -17 23 0 -5 11 105 91 113 82 2 -2 -15 -39 -39 -82 -61
-113 -51 -127 47 -64 42 27 83 47 90 44 18 -7 18 7 -2 35 -14 20 -41 22 -29 2
5 -8 -91 -80 -107 -80 -4 0 13 38 38 84 l44 83 -20 24 c-10 13 -20 20 -21 14z"/>
<path d="M1850 1430 c0 -5 4 -10 8 -10 4 0 13 -13 19 -30 11 -28 33 -42 33
-20 0 6 -4 10 -10 10 -5 0 -10 8 -10 18 0 19 -18 42 -32 42 -4 0 -8 -4 -8 -10z"/>
<path d="M2755 1420 c-3 -6 1 -7 9 -4 18 7 21 14 7 14 -6 0 -13 -4 -16 -10z"/>
<path d="M2488 1383 c7 -3 16 -2 19 1 4 3 -2 6 -13 5 -11 0 -14 -3 -6 -6z"/>
<path d="M2205 1360 c-3 -6 1 -7 9 -4 18 7 21 14 7 14 -6 0 -13 -4 -16 -10z"/>
<path d="M2250 1366 c0 -2 7 -7 16 -10 8 -3 12 -2 9 4 -6 10 -25 14 -25 6z"/>
<path d="M2600 1366 c0 -2 9 -6 20 -9 11 -3 18 -1 14 4 -5 9 -34 13 -34 5z"/>
<path d="M3023 1338 c-42 -11 -73 -52 -73 -95 0 -53 54 -103 109 -103 57 0 91
33 91 90 0 25 -4 39 -10 35 -5 -3 -10 -19 -10 -36 0 -64 -78 -92 -125 -45 -50
50 -38 117 25 131 30 7 46 20 33 28 -5 2 -22 0 -40 -5z"/>
<path d="M2493 1306 c1 -17 9 -31 17 -33 10 -3 11 -2 4 4 -7 4 -14 19 -17 33
-4 22 -5 21 -4 -4z"/>
<path d="M2224 1274 c-19 -15 -19 -15 1 -6 11 5 27 12 35 15 13 5 13 6 -1 6
-8 1 -24 -6 -35 -15z"/>
<path d="M2378 1283 c7 -3 16 -2 19 1 4 3 -2 6 -13 5 -11 0 -14 -3 -6 -6z"/>
<path d="M1880 1243 c-50 -25 -76 -81 -60 -128 12 -37 51 -65 90 -65 34 0 78
31 96 68 40 84 -43 167 -126 125z m92 -30 c58 -52 -25 -169 -95 -132 -30 16
-37 28 -37 65 0 66 85 110 132 67z"/>
<path d="M2078 1243 c7 -3 16 -2 19 1 4 3 -2 6 -13 5 -11 0 -14 -3 -6 -6z"/>
<path d="M2128 1243 c7 -3 16 -2 19 1 4 3 -2 6 -13 5 -11 0 -14 -3 -6 -6z"/>
<path d="M2666 1235 c-3 -9 -11 -13 -17 -9 -8 5 -9 3 -4 -5 6 -10 11 -9 23 3
9 8 13 18 10 21 -3 3 -8 -1 -12 -10z"/>
<path d="M2863 1203 c-26 -18 -30 -33 -9 -33 22 0 107 -115 100 -134 -8 -21 3
-20 33 4 23 18 23 25 1 21 -12 -1 -100 128 -94 138 11 17 -8 19 -31 4z"/>
<path d="M2738 1128 c-46 -20 -62 -38 -34 -38 15 0 78 -124 74 -145 -3 -15 8
-18 35 -9 18 6 24 24 7 24 -5 0 -17 14 -26 32 -16 30 -16 33 1 43 30 17 55 44
55 60 0 18 -35 55 -52 55 -7 -1 -34 -10 -60 -22z m82 -38 c0 -18 -26 -40 -48
-40 -8 0 -36 50 -30 55 36 28 78 20 78 -15z"/>
<path d="M2110 1121 c0 -5 -3 -16 -6 -25 -4 -11 -1 -16 10 -16 9 0 16 5 16 10
0 13 37 13 45 1 8 -14 -42 -142 -62 -156 -14 -11 -12 -13 15 -23 30 -10 54 -1
33 13 -9 5 31 139 45 154 2 2 15 -1 29 -7 16 -7 23 -17 19 -27 -4 -9 -1 -15 9
-15 17 0 30 37 16 46 -12 7 -150 54 -161 54 -4 0 -8 -4 -8 -9z"/>
<path d="M2528 1050 c-28 -28 -30 -35 -26 -81 6 -62 30 -88 86 -96 36 -5 45
-2 72 25 66 67 19 182 -75 182 -16 0 -39 -12 -57 -30z m109 -14 c37 -32 39
-99 4 -127 -31 -25 -54 -24 -88 5 -37 32 -39 99 -4 127 31 25 54 24 88 -5z"/>
<path d="M2305 1060 c-3 -5 -1 -10 6 -10 16 0 4 -151 -14 -162 -15 -10 8 -28
36 -28 17 0 23 15 9 24 -4 3 -6 21 -4 40 7 62 55 44 69 -25 6 -32 18 -48 36
-49 4 0 7 7 7 15 0 8 -4 15 -10 15 -5 0 -10 10 -10 23 0 12 -4 28 -9 36 -6 10
-2 23 11 42 20 26 20 30 5 52 -20 31 -117 51 -132 27z m110 -50 c0 -22 -5 -25
-37 -28 -40 -3 -43 2 -32 44 5 18 11 20 37 15 26 -6 32 -12 32 -31z"/>
</g>
</svg>
